<mxfile host="65bd71144e">
    <diagram id="dr2oZj12fzbZaYoph13a" name="Page-1">
        <mxGraphModel dx="883" dy="643" grid="1" gridSize="10" guides="1" tooltips="1" connect="1" arrows="1" fold="1" page="1" pageScale="1" pageWidth="1100" pageHeight="850" math="0" shadow="0">
            <root>
                <mxCell id="0"/>
                <mxCell id="1" parent="0"/>
                <mxCell id="54" value="" style="rounded=0;whiteSpace=wrap;html=1;" vertex="1" parent="1">
                    <mxGeometry x="10" y="390" width="810" height="190" as="geometry"/>
                </mxCell>
                <mxCell id="34" value="" style="rounded=0;whiteSpace=wrap;html=1;" vertex="1" parent="1">
                    <mxGeometry x="10" y="210" width="810" height="170" as="geometry"/>
                </mxCell>
                <mxCell id="2" value="mic" style="rounded=0;whiteSpace=wrap;html=1;" vertex="1" parent="1">
                    <mxGeometry x="90" y="90" width="70" height="50" as="geometry"/>
                </mxCell>
                <mxCell id="3" value="human command parsing" style="rounded=0;whiteSpace=wrap;html=1;" vertex="1" parent="1">
                    <mxGeometry x="230" y="90" width="70" height="50" as="geometry"/>
                </mxCell>
                <mxCell id="4" value="manager" style="rounded=0;whiteSpace=wrap;html=1;" vertex="1" parent="1">
                    <mxGeometry x="340" y="90" width="70" height="50" as="geometry"/>
                </mxCell>
                <mxCell id="5" value="cmd filter" style="rounded=0;whiteSpace=wrap;html=1;" vertex="1" parent="1">
                    <mxGeometry x="480" y="90" width="70" height="50" as="geometry"/>
                </mxCell>
                <mxCell id="6" value="action planing" style="rounded=0;whiteSpace=wrap;html=1;" vertex="1" parent="1">
                    <mxGeometry x="600" y="90" width="70" height="50" as="geometry"/>
                </mxCell>
                <mxCell id="7" value="trajectory manager" style="rounded=0;whiteSpace=wrap;html=1;" vertex="1" parent="1">
                    <mxGeometry x="710" y="90" width="70" height="50" as="geometry"/>
                </mxCell>
                <mxCell id="21" value="" style="endArrow=none;html=1;entryX=0.5;entryY=1;entryDx=0;entryDy=0;" edge="1" parent="1" target="3">
                    <mxGeometry width="50" height="50" relative="1" as="geometry">
                        <mxPoint x="265" y="550" as="sourcePoint"/>
                        <mxPoint x="255" y="140" as="targetPoint"/>
                    </mxGeometry>
                </mxCell>
                <mxCell id="22" value="" style="endArrow=none;html=1;entryX=0.5;entryY=1;entryDx=0;entryDy=0;" edge="1" parent="1">
                    <mxGeometry width="50" height="50" relative="1" as="geometry">
                        <mxPoint x="372.5" y="550" as="sourcePoint"/>
                        <mxPoint x="377.5" y="140" as="targetPoint"/>
                    </mxGeometry>
                </mxCell>
                <mxCell id="25" value="" style="endArrow=none;html=1;entryX=0.5;entryY=1;entryDx=0;entryDy=0;" edge="1" parent="1" target="2">
                    <mxGeometry width="50" height="50" relative="1" as="geometry">
                        <mxPoint x="124.66" y="550" as="sourcePoint"/>
                        <mxPoint x="140" y="180" as="targetPoint"/>
                    </mxGeometry>
                </mxCell>
                <mxCell id="26" value="" style="endArrow=none;html=1;entryX=0.5;entryY=1;entryDx=0;entryDy=0;" edge="1" parent="1">
                    <mxGeometry width="50" height="50" relative="1" as="geometry">
                        <mxPoint x="512.5" y="550" as="sourcePoint"/>
                        <mxPoint x="517.5" y="140" as="targetPoint"/>
                    </mxGeometry>
                </mxCell>
                <mxCell id="27" value="" style="endArrow=none;html=1;entryX=0.5;entryY=1;entryDx=0;entryDy=0;dashed=1;" edge="1" parent="1">
                    <mxGeometry width="50" height="50" relative="1" as="geometry">
                        <mxPoint x="632.5" y="550" as="sourcePoint"/>
                        <mxPoint x="637.5" y="140" as="targetPoint"/>
                    </mxGeometry>
                </mxCell>
                <mxCell id="28" value="" style="endArrow=none;html=1;entryX=0.5;entryY=1;entryDx=0;entryDy=0;dashed=1;" edge="1" parent="1">
                    <mxGeometry width="50" height="50" relative="1" as="geometry">
                        <mxPoint x="742.5" y="550" as="sourcePoint"/>
                        <mxPoint x="747.5" y="140" as="targetPoint"/>
                    </mxGeometry>
                </mxCell>
                <mxCell id="36" value="&lt;div&gt;cmd can be done&lt;/div&gt;" style="text;html=1;align=center;verticalAlign=middle;resizable=0;points=[];autosize=1;strokeColor=none;fillColor=none;" vertex="1" parent="1">
                    <mxGeometry y="240" width="120" height="30" as="geometry"/>
                </mxCell>
                <mxCell id="37" value="opt" style="rounded=0;whiteSpace=wrap;html=1;" vertex="1" parent="1">
                    <mxGeometry x="10" y="390" width="30" height="30" as="geometry"/>
                </mxCell>
                <mxCell id="38" value="" style="endArrow=classic;html=1;" edge="1" parent="1">
                    <mxGeometry width="50" height="50" relative="1" as="geometry">
                        <mxPoint x="130" y="170" as="sourcePoint"/>
                        <mxPoint x="260" y="170" as="targetPoint"/>
                    </mxGeometry>
                </mxCell>
                <mxCell id="39" value="voice" style="edgeLabel;html=1;align=center;verticalAlign=middle;resizable=0;points=[];" vertex="1" connectable="0" parent="38">
                    <mxGeometry x="-0.2128" y="1" relative="1" as="geometry">
                        <mxPoint x="19" y="-9" as="offset"/>
                    </mxGeometry>
                </mxCell>
                <mxCell id="40" value="" style="endArrow=classic;html=1;" edge="1" parent="1">
                    <mxGeometry width="50" height="50" relative="1" as="geometry">
                        <mxPoint x="740" y="160" as="sourcePoint"/>
                        <mxPoint x="380" y="160" as="targetPoint"/>
                    </mxGeometry>
                </mxCell>
                <mxCell id="41" value="system state&lt;div&gt;async&lt;/div&gt;" style="edgeLabel;html=1;align=center;verticalAlign=middle;resizable=0;points=[];labelBackgroundColor=none;" vertex="1" connectable="0" parent="40">
                    <mxGeometry x="0.4486" y="-3" relative="1" as="geometry">
                        <mxPoint x="91" y="3" as="offset"/>
                    </mxGeometry>
                </mxCell>
                <mxCell id="42" value="" style="endArrow=classic;html=1;edgeStyle=orthogonalEdgeStyle;" edge="1" parent="1">
                    <mxGeometry width="50" height="50" relative="1" as="geometry">
                        <mxPoint x="370" y="170" as="sourcePoint"/>
                        <mxPoint x="380" y="190" as="targetPoint"/>
                        <Array as="points">
                            <mxPoint x="340" y="170.97"/>
                            <mxPoint x="340" y="189.97"/>
                        </Array>
                    </mxGeometry>
                </mxCell>
                <mxCell id="43" value="can&amp;nbsp;&lt;div&gt;take&amp;nbsp;&lt;/div&gt;&lt;div&gt;cmd?&lt;/div&gt;" style="text;html=1;align=center;verticalAlign=middle;resizable=0;points=[];autosize=1;strokeColor=none;fillColor=none;" vertex="1" parent="1">
                    <mxGeometry x="300" y="140" width="50" height="60" as="geometry"/>
                </mxCell>
                <mxCell id="46" value="" style="endArrow=classic;html=1;jumpSize=1;jumpStyle=line;" edge="1" parent="1">
                    <mxGeometry width="50" height="50" relative="1" as="geometry">
                        <mxPoint x="270" y="230" as="sourcePoint"/>
                        <mxPoint x="370" y="230" as="targetPoint"/>
                    </mxGeometry>
                </mxCell>
                <mxCell id="47" value="cmd" style="edgeLabel;html=1;align=center;verticalAlign=middle;resizable=0;points=[];labelBackgroundColor=none;" vertex="1" connectable="0" parent="46">
                    <mxGeometry x="-0.1082" relative="1" as="geometry">
                        <mxPoint y="-5" as="offset"/>
                    </mxGeometry>
                </mxCell>
                <mxCell id="48" value="" style="endArrow=classic;html=1;" edge="1" parent="1">
                    <mxGeometry width="50" height="50" relative="1" as="geometry">
                        <mxPoint x="380" y="280" as="sourcePoint"/>
                        <mxPoint x="520" y="280" as="targetPoint"/>
                    </mxGeometry>
                </mxCell>
                <mxCell id="49" value="cmd" style="edgeLabel;html=1;align=center;verticalAlign=middle;resizable=0;points=[];" vertex="1" connectable="0" parent="48">
                    <mxGeometry x="-0.1621" relative="1" as="geometry">
                        <mxPoint x="11" y="-10" as="offset"/>
                    </mxGeometry>
                </mxCell>
                <mxCell id="50" value="" style="endArrow=classic;html=1;" edge="1" parent="1">
                    <mxGeometry width="50" height="50" relative="1" as="geometry">
                        <mxPoint x="630" y="320" as="sourcePoint"/>
                        <mxPoint x="520" y="320" as="targetPoint"/>
                    </mxGeometry>
                </mxCell>
                <mxCell id="51" value="sequence of actions&lt;div&gt;async&lt;/div&gt;" style="edgeLabel;html=1;align=center;verticalAlign=middle;resizable=0;points=[];labelBackgroundColor=none;" vertex="1" connectable="0" parent="50">
                    <mxGeometry x="0.4764" relative="1" as="geometry">
                        <mxPoint x="31" as="offset"/>
                    </mxGeometry>
                </mxCell>
                <mxCell id="52" value="" style="endArrow=classic;html=1;edgeStyle=orthogonalEdgeStyle;" edge="1" parent="1">
                    <mxGeometry width="50" height="50" relative="1" as="geometry">
                        <mxPoint x="510" y="350" as="sourcePoint"/>
                        <mxPoint x="510" y="370" as="targetPoint"/>
                        <Array as="points">
                            <mxPoint x="490" y="350"/>
                            <mxPoint x="490" y="370"/>
                            <mxPoint x="510" y="370"/>
                        </Array>
                    </mxGeometry>
                </mxCell>
                <mxCell id="53" value="fit cmd" style="edgeLabel;html=1;align=center;verticalAlign=middle;resizable=0;points=[];" vertex="1" connectable="0" parent="52">
                    <mxGeometry x="-0.0533" y="3" relative="1" as="geometry">
                        <mxPoint x="-23" as="offset"/>
                    </mxGeometry>
                </mxCell>
                <mxCell id="55" value="opt" style="rounded=0;whiteSpace=wrap;html=1;" vertex="1" parent="1">
                    <mxGeometry x="10" y="210" width="30" height="30" as="geometry"/>
                </mxCell>
                <mxCell id="56" value="&lt;div&gt;cmd fits&lt;/div&gt;" style="text;html=1;align=center;verticalAlign=middle;resizable=0;points=[];autosize=1;strokeColor=none;fillColor=none;" vertex="1" parent="1">
                    <mxGeometry x="10" y="420" width="60" height="30" as="geometry"/>
                </mxCell>
                <mxCell id="58" value="" style="endArrow=classic;html=1;" edge="1" parent="1">
                    <mxGeometry width="50" height="50" relative="1" as="geometry">
                        <mxPoint x="520" y="430" as="sourcePoint"/>
                        <mxPoint x="630" y="430" as="targetPoint"/>
                    </mxGeometry>
                </mxCell>
                <mxCell id="59" value="valid command" style="edgeLabel;html=1;align=center;verticalAlign=middle;resizable=0;points=[];" vertex="1" connectable="0" parent="58">
                    <mxGeometry x="-0.1636" y="1" relative="1" as="geometry">
                        <mxPoint x="4" y="-9" as="offset"/>
                    </mxGeometry>
                </mxCell>
            </root>
        </mxGraphModel>
    </diagram>
</mxfile>